<?xml version="1.0" encoding="utf-8"?>
<!-- Generator: Adobe Illustrator 23.0.0, SVG Export Plug-In . SVG Version: 6.00 Build 0)  -->
<svg version="1.1" id="Layer_1" xmlns="http://www.w3.org/2000/svg" xmlns:xlink="http://www.w3.org/1999/xlink" x="0px" y="0px"
	 viewBox="0 0 206.6 206.7" style="enable-background:new 0 0 206.6 206.7;" xml:space="preserve">
<style type="text/css">
	.st0{fill:#619A44;}
	.st1{fill:#73ADA5;}
	.st2{fill:#FDFCFE;}
</style>
<title>bootstrap</title>
<g>
	<g id="Layer_1-2">
		<g id="bootstrap">
			<path class="st0" d="M196.7,59C172.2,7.3,110.4-14.7,58.8,9.9S-14.9,96.1,9.6,147.8s86.3,73.7,137.9,49.1
				c36.2-17.2,59.2-53.6,59.1-93.6C206.7,88,203.3,72.8,196.7,59z"/>
			<path class="st1" d="M37.3,160.1V46.6c1.6-4.3,5-7.6,9.3-9.3h112.9c4.8,1.3,8.5,5.1,9.9,9.8v112.9c-1.6,4.5-5.3,7.9-9.9,9.3H46.6
				C42.3,167.7,38.9,164.3,37.3,160.1z M116.6,100.6c0.4-0.2,0.8-0.4,1.2-0.6c6.1-2.2,9.7-6.8,9.9-12.8c0.4-6.3-3.3-12.1-9.2-14.3
				c-2.6-1.1-5.3-1.7-8.2-1.8c-8.8-0.1-17.6,0-26.3-0.1c-1.5,0-2,0.5-2,2c0,19.8,0,39.6,0,59.3c0,1.5,0.4,2.1,2,2.1
				c9.8-0.2,19.7,0.4,29.5-0.3c3.9-0.2,7.6-1.6,10.8-3.9c5.6-4.2,7.4-10,6.3-16.6c-1-6-4.8-9.7-10.4-11.6
				C119,101.5,117.7,101.8,116.6,100.6z"/>
			<path class="st2" d="M116.6,100.6c1.1,1.2,2.4,0.9,3.5,1.3c5.7,1.9,9.5,5.7,10.4,11.6c1.1,6.7-0.7,12.5-6.3,16.6
				c-3.1,2.3-6.9,3.6-10.8,3.9c-9.8,0.7-19.7,0.2-29.5,0.3c-1.5,0-2-0.6-2-2.1c0-19.8,0-39.6,0-59.3c0-1.5,0.5-2,2-2
				c8.8,0.1,17.6,0,26.3,0.1c2.8,0.1,5.6,0.7,8.2,1.8c5.9,2.2,9.7,8,9.2,14.3c-0.2,6-3.8,10.7-9.9,12.8
				C117.3,100.2,116.9,100.4,116.6,100.6z M93.4,115.3c0,2.7,0,5.4,0,8.1c0,1-0.1,2,1.4,2c5.4-0.2,10.8,0.5,16.1-0.5
				c5.6-1,8.3-4.2,8.3-9.4s-3-8.3-8.5-9.2c-5.2-0.9-10.4-0.3-15.6-0.5c-1.5,0-1.7,0.8-1.7,2C93.4,110.3,93.4,112.8,93.4,115.3z
				 M93.4,88.3v7.5c0,0.9,0,1.8,1.3,1.8c5.2-0.2,10.4,0.7,15.6-0.7c4.1-1.1,6.3-4,6.3-8s-2.3-7-6.4-8.3c-2.6-0.8-5.3-0.6-8-0.6
				s-6.4-1.2-8.1,0.5C92.1,82.3,93.7,86,93.4,88.3z"/>
			<path class="st1" d="M93.4,115.3c0-2.5,0-5,0-7.5c0-1.2,0.2-2.1,1.7-2c5.2,0.2,10.4-0.4,15.6,0.5c5.6,0.9,8.5,4.1,8.5,9.2
				s-2.7,8.4-8.3,9.4c-5.3,1-10.8,0.3-16.1,0.5c-1.5,0-1.4-1-1.4-2C93.3,120.7,93.4,118,93.4,115.3z"/>
			<path class="st1" d="M93.4,88.3c0.3-2.3-1.3-6,0.6-7.8c1.8-1.6,5.3-0.4,8.1-0.5s5.4-0.3,8,0.6c4.1,1.2,6.4,4.2,6.4,8.3
				s-2.3,6.8-6.3,8c-5.1,1.4-10.4,0.6-15.6,0.7c-1.3,0-1.3-0.9-1.3-1.8L93.4,88.3z"/>
		</g>
	</g>
</g>
</svg>
