<svg xmlns="http://www.w3.org/2000/svg" viewBox="0 0 206.65 206.66"><defs><style>.cls-1{fill:#619a44;}.cls-2{fill:#73ada5;}.cls-3{fill:#fefefe;}.cls-4{fill:#89c6ba;}</style></defs><title>css</title><g id="Layer_2" data-name="Layer 2"><g id="Layer_1-2" data-name="Layer 1"><g id="css"><path class="cls-1" d="M196.69,59a103.54,103.54,0,1,0,10,44.31A103.66,103.66,0,0,0,196.69,59Z"/><path class="cls-2" d="M103.38,41.26c20.24,0,40.49,0,60.73-.06,2.34,0,2.93.58,2.71,2.93q-3.31,35.59-6.44,71.2c-1.56,17.49-3.16,35-4.58,52.46-.22,2.64-1.08,3.73-3.68,4.42-15.7,4.19-31.35,8.58-47,13a6.7,6.7,0,0,1-3.79,0c-15.74-4.4-31.48-8.8-47.26-13.08-2.23-.6-3-1.56-3.19-3.9C48.66,142.08,46.28,116,44,89.82,42.58,74.55,41.27,59.27,39.83,44c-.21-2.21.31-2.8,2.55-2.79C62.72,41.29,83.05,41.26,103.38,41.26Zm-.27,41.57q0,8,0,16c-5.62,0-11.24.11-16.86.09-1.36,0-2,.2-1.8,1.82q.72,6,1.11,12.1c.1,1.67.72,2.14,2.37,2.11,5.06-.07,10.13,0,15.19.07q0,12.52.05,25.06c-5.35-1.37-10.69-2.77-16.06-4.09-1.38-.34-1.62-1.24-1.71-2.44-.2-2.95-.53-5.89-.67-8.84-.07-1.41-.54-1.91-2-1.88-4,.09-7.94.13-11.91,0-1.89-.06-2.35.55-2.17,2.37.67,6.7,1.3,13.41,1.74,20.13.13,2,.88,2.82,2.79,3.33,10,2.69,19.9,5.54,29.84,8.33q0,7.2.1,14.4c0,3.23,0,3.3,3.25,2.41,10.91-3,21.76-6.23,32.73-9,4.23-1.07,7.08-1.92,7-7.5-.12-7.3,1.25-14.62,1.9-21.94s1.14-14.48,1.77-21.71q1-11.8,2.15-23.6c.47-4.94,1-9.87,1.49-14.8.64-7,1.19-14.11,1.82-21.16.15-1.64-.38-2.29-2.13-2.28q-24,.08-47.95,0c-1.6,0-2.06.61-2,2.13.07,4.25,0,8.5,0,12.75-.46,0-.92.1-1.38.1-11.92,0-23.83,0-35.75,0-1.9,0-2.61.37-2.34,2.42a90.16,90.16,0,0,1,.95,10.75c0,2.59,1.13,2.9,3.35,2.88C79.65,82.72,91.38,82.8,103.11,82.83Z"/><path class="cls-3" d="M103,157c-9.94-2.79-19.87-5.64-29.84-8.33-1.91-.51-2.66-1.29-2.79-3.33-.44-6.72-1.07-13.43-1.74-20.13-.18-1.82.28-2.43,2.17-2.37,4,.14,7.94.1,11.91,0,1.45,0,1.92.47,2,1.88.14,3,.47,5.89.67,8.84.09,1.2.33,2.1,1.71,2.44,5.37,1.32,10.71,2.72,16.06,4.09,5.77-.85,11.22-3,16.88-4.25,1.36-.31,1.2-1.41,1.29-2.42.48-5.52.9-11,1.52-16.55.21-1.84-.59-1.94-2-1.92-5.91.06-11.82.06-17.74.08C98,115,93,114.89,87.91,115c-1.65,0-2.27-.44-2.37-2.11q-.39-6.06-1.11-12.1c-.19-1.62.44-1.83,1.8-1.82,5.62,0,11.24-.05,16.86-.09,6.45,0,12.9,0,19.34.15,1.88,0,2.08-.93,2.2-2.34.32-3.94.63-7.89,1.06-11.82.17-1.54-.19-2.11-1.86-2.09-6.91.1-13.81.07-20.72.09-11.73,0-23.46-.11-35.19,0-2.22,0-3.32-.29-3.35-2.88a90.16,90.16,0,0,0-.95-10.75c-.27-2,.44-2.43,2.34-2.42,11.92.08,23.83,0,35.75,0,.46,0,.92-.07,1.38-.1,12.55,0,25.1.1,37.65,0,1.95,0,2.59.52,2.35,2.49-.46,3.84-.75,7.7-1.09,11.56q-2.88,32.66-5.72,65.3c-.11,1.26-.45,2-1.8,2.31C124,151.2,113.5,154.11,103,157Z"/><path class="cls-4" d="M153.07,51.79q-24,.08-47.95,0c-1.6,0-2.06.61-2,2.13.07,4.25,0,8.5,0,12.75,12.55,0,25.1.1,37.65,0,1.95,0,2.59.52,2.35,2.49-.46,3.84-.75,7.7-1.09,11.56q-2.88,32.66-5.72,65.3c-.11,1.26-.45,2-1.8,2.31C124,151.2,113.5,154.11,103,157q0,7.2.1,14.4c0,3.23,0,3.3,3.25,2.41,10.91-3,21.76-6.23,32.73-9,4.23-1.07,7.08-1.92,7-7.5-.12-7.3,1.25-14.62,1.9-21.94s1.14-14.48,1.77-21.71q1-11.8,2.15-23.6c.47-4.94,1-9.87,1.49-14.8.64-7,1.19-14.11,1.82-21.16C155.35,52.43,154.82,51.78,153.07,51.79Z"/><path class="cls-4" d="M103.1,115q0,12.52.05,25.06c5.77-.85,11.22-3,16.88-4.25,1.36-.31,1.2-1.41,1.29-2.42.48-5.52.9-11,1.52-16.55.21-1.84-.59-1.94-2-1.92C114.93,115,109,115,103.1,115Z"/><path class="cls-4" d="M124.63,96.65c.32-3.94.63-7.89,1.06-11.82.17-1.54-.19-2.11-1.86-2.09-6.91.1-13.81.07-20.72.09q0,8,0,16c6.45,0,12.9,0,19.34.15C124.31,99,124.51,98.06,124.63,96.65Z"/></g></g></g></svg>