<svg id="Layer_1" data-name="Layer 1" width="50px" height="50px" xmlns="http://www.w3.org/2000/svg" viewBox="0 0 379.72 379.72"><defs><style>.cls-1{fill:#619a44;}</style></defs><title>Github-logo</title><path class="cls-1" d="M600.28,173c-104.86,0-189.86,85-189.86,189.86s85,189.86,189.86,189.86,189.85-85,189.85-189.86S705.13,173,600.28,173ZM765.54,386.27a156.11,156.11,0,0,1-22.86,62.86c-13.53,21.56-30.77,39.56-52.33,53.26a164.53,164.53,0,0,1-35.94,17c-7,2.35-11.84-1.28-11.88-8.65-.07-14.5,0-29,0-43.5,0-8.84-.93-17.54-5.75-25.28-1.41-2.26-3.19-4.28-4.86-6.49,6.48-1.21,13-2.08,19.3-3.68,17-4.31,32.13-11.8,42.46-26.61,7.59-10.88,11.06-23.37,12.59-36.4,1.19-10.12,1.53-20.28-.6-30.35a59.52,59.52,0,0,0-13.31-27,5.31,5.31,0,0,1-1.18-6c4.46-13.47,2.59-26.67-2.42-39.6a3.43,3.43,0,0,0-2.42-1.56c-5.89-.89-11.45.78-16.62,3.22-8.38,4-16.49,8.5-24.79,12.64a7.56,7.56,0,0,1-4.78.81,156.92,156.92,0,0,0-78,0,7.24,7.24,0,0,1-5-1,119.41,119.41,0,0,0-33.83-15.25c-.21-.05-.41-.13-.62-.18-7.63-1.56-9-.68-11.2,6.69-3.51,11.92-4.14,23.79,0,35.71a4,4,0,0,1-.74,3.34c-13.7,15.56-16.94,34-15.23,53.93a95.43,95.43,0,0,0,9.23,34.55c7.46,15,20.09,24.26,35.39,29.66,9.61,3.39,19.79,5.16,29.87,7.69.08-.49.14-.1,0,.07a35.33,35.33,0,0,0-9.31,19.24,3.63,3.63,0,0,1-1.53,2.54c-11.55,4.34-23.16,6.63-34.57-.34-5.19-3.17-9-7.74-12-12.94-4.79-8.16-11.55-14.08-20.63-16.77-3.26-1-7-.73-10.47-.52-2.38.14-3.16,1.92-1.57,3.91s3,3.92,4.94,5.05c8.73,5,13.63,13.07,17.63,21.81,2.38,5.22,4.42,10.54,8.84,14.55,7,6.38,15.56,8.79,24.7,9.19,7.74.34,15.5.07,23.62.07a9.56,9.56,0,0,1,.16,1.52c.11,8.77.23,17.53.29,26.3.06,8.57-5.09,12.12-13.22,9.29-42.2-14.65-73.16-42.39-93.82-81.6-15.56-29.53-20.48-61.24-17-94.34,3.68-34.66,17.39-65,40.27-91,23.92-27.21,53.69-45.29,89.27-52.52,51.69-10.51,98.91,0,140.24,33.26,31.34,25.19,50.73,58,58.56,97.44,1.15,5.82,1.59,11.77,2.38,17.66.15,1.16.41,2.3.62,3.44v19.48C766.75,376,766.23,381.14,765.54,386.27Z" transform="translate(-410.42 -173.04)"/></svg>