<svg xmlns="http://www.w3.org/2000/svg" viewBox="0 0 206.65 206.66"><defs><style>.cls-1{fill:#73ada5;}.cls-2{fill:#fff;}.cls-3{fill:#619a44;}</style></defs><title>gulp</title><g id="Layer_2" data-name="Layer 2"><g id="Layer_1-2" data-name="Layer 1"><g id="gulp"><path class="cls-1" d="M196.69,59a103.54,103.54,0,1,0,10,44.31A103.66,103.66,0,0,0,196.69,59Z"/><path class="cls-2" d="M65.84,65.77c1.69,4,5.47,9.12,9.28,11.13C84.87,82,96,84.08,107,84.37a25.82,25.82,0,0,0,7-.52,22.94,22.94,0,0,0,4.78-1.91A95.31,95.31,0,0,0,129.66,75l7.87-5.51A6.38,6.38,0,0,0,139,68.26a17.38,17.38,0,0,0,1.44-2.65,31.84,31.84,0,0,0,.92-3.15c.13-.46.49-1.39.19-1.77s-.79.06-1.15,0c-10.08-1.16-20.22-1.81-30.36-2.07-9.8-.25-19.6-.14-29.37.46-4.26.26-9.49-.79-13.61.36C63.53,60.44,64.72,63.16,65.84,65.77Z"/><path class="cls-2" d="M70.41,115.67a16.76,16.76,0,0,0,2.45,8c2,3.2,5.73,4.95,9.32,6.19,10.09,3.48,21,3.61,31.65,3.67a17.32,17.32,0,0,0,6.62-.83c4.7-1.91,6.7-7.34,10-11.21,1.47-1.73,4-2.5,4.54-4.69a55,55,0,0,0,.7-5.9c1-8.18-2.44-15.29-7.08-21.59a10.79,10.79,0,0,0-2.51-2.62,12.45,12.45,0,0,0-4.62-1.63,181,181,0,0,0-30.17-3.56,22.17,22.17,0,0,0-7.27.59c-3.17,1-5.8,3.16-8.32,5.31a11.25,11.25,0,0,0-2.87,3.17A11.28,11.28,0,0,0,72,93.46l-1.22,5.79c-.39,1.82-1.2,3.79-1.18,5.65C69.59,108.54,70.05,111.83,70.41,115.67Z"/><path class="cls-2" d="M125,152.56a26.51,26.51,0,0,1-10.75,2.59c-3.7.22-7.42,0-11.13.08-4.39.08-8.82.56-13.13-.26a41.14,41.14,0,0,1-10-3.71c-2-1-3.82-1.24-4.77-3.25a14.09,14.09,0,0,1-1.48-3.19c-.46-1.4.41-2.65,1.62-3.44a6.47,6.47,0,0,1,3.57-.71l21-.08c4.09,0,8.18,0,12.27.15A32.43,32.43,0,0,1,120.6,142c2.85.9,5.62,2.51,8.6,2.29.86-.06,2.71-.71,2.74.45,0,.93-1.28,3.22-1.8,3.93C128.76,150.56,127.07,151.47,125,152.56Z"/><path class="cls-3" d="M116.69,115.83a21,21,0,0,1-1.55,4.06,70.9,70.9,0,0,0-3,7.15,5.78,5.78,0,0,0-.28,1.6c0,.53,0,1.07.61,1.31s1-.12,1.37-.48a9.2,9.2,0,0,0,1.58-2.23,85,85,0,0,0,3.62-8.24,52,52,0,0,1,3.82-7.83,13.19,13.19,0,0,1,3.31-3.75,6.93,6.93,0,0,1,3.68-1.39c.21,0,.47-.08.61.15s0,.48-.17.66c-.37.46-.76.91-1.17,1.34a45.28,45.28,0,0,0-4.49,4.9,7.52,7.52,0,0,0-1.36,2.69,2.59,2.59,0,0,0,2.81,3.46,12.26,12.26,0,0,0,5.21-1.75,24.56,24.56,0,0,0,4-2.8c-.09,1-.23,1.7-.31,2.41q-1.22,11-2.46,22c-.2,1.81-.43,3.62-.58,5.44a1.15,1.15,0,0,1-.7,1,33.34,33.34,0,0,1-8.64,3.17,80.21,80.21,0,0,1-15.52,2,108.32,108.32,0,0,1-14.41-.35,53.41,53.41,0,0,1-16.14-3.67c-3-1.28-3-1.3-3.28-4.51-.6-6-1.24-11.91-1.87-17.87-.17-1.62-.32-3.23-.49-4.85,0-.32-.07-.64.43-.43,2.56,1.06,4.82.33,7-1.16a26.23,26.23,0,0,0,3.48-3.1,1.65,1.65,0,0,1,.67-.52,12.65,12.65,0,0,1-.68,2.61,26.18,26.18,0,0,0-1.4,5.42,6.12,6.12,0,0,0,0,.74c0,.58.2,1.1.82,1.26a1.28,1.28,0,0,0,1.39-.64,8.43,8.43,0,0,0,1.28-2.73q2.48-8.31,4.9-16.65a8.19,8.19,0,0,0,.36-2.7c0-.66-.19-1.31-1-1.51a1.38,1.38,0,0,0-1.53.78A9.62,9.62,0,0,0,85.29,104c-1,4.62-4.15,7.66-7.77,10.33a5.49,5.49,0,0,1-1.78.88,2.06,2.06,0,0,1-2.88-1.48,8.28,8.28,0,0,1-.08-4.25,39.81,39.81,0,0,1,5.86-13.47,14.52,14.52,0,0,1,3.37-4,8.43,8.43,0,0,1,2.73-1.44,2.7,2.7,0,0,1,3.39,1.22c.51.76.93,1.57,1.43,2.33a1.43,1.43,0,0,0,1.58.7,1.53,1.53,0,0,0,1.38-2c-.57-2.62-4-5.89-6.36-6a9.14,9.14,0,0,0-5.74,1.79,21,21,0,0,0-5.66,6.46A55.89,55.89,0,0,0,70,105.21a2.59,2.59,0,0,1-.49.9c-1.45-14-2.89-27.89-4.35-41.92A21.45,21.45,0,0,0,70.41,66a81.43,81.43,0,0,0,11,1.58c8,.69,16,.82,23.94.77a212.6,212.6,0,0,0,21.86-1.08,60.06,60.06,0,0,0,10.88-2,16.19,16.19,0,0,0,2.84-1.16c-.16,1.45-.3,2.78-.45,4.12q-.7,6.36-1.42,12.71-.78,7-1.57,14.11c-.51,4.63-1,9.26-1.53,13.89a3.55,3.55,0,0,1-1,2.43,17.9,17.9,0,0,1-7.52,4.53l-.14,0c-.3,0-.7.23-.87-.08s.2-.52.39-.73c1.58-1.76,3.4-3.3,4.81-5.22a8.15,8.15,0,0,0,1.84-3.9,2.8,2.8,0,0,0-3.61-3.26,13.06,13.06,0,0,0-5.77,3.16l-.42.39c.07-.55.15-1,.17-1.38a1.21,1.21,0,0,0-1-1.42c-.75-.2-1.1.27-1.38.82a25.41,25.41,0,0,0-1.16,3.27,10.94,10.94,0,0,1-7.87,7.71c-.16,0-.32.11-.49.16-1,.35-1.24.17-1.13-.9a17.85,17.85,0,0,1,1.13-4.12c1.69-4.71,3.77-9.26,5.75-13.85A18.24,18.24,0,0,0,119,92.48a6.64,6.64,0,0,0,.1-1.18c0-.69-.15-1.39-.91-1.62s-1.07.39-1.41.85a18.62,18.62,0,0,0-2.19,4.34c-1.83,4.71-3.83,9.34-5.48,14.12-.45,1.27-.74,2.6-1.12,3.9a4.82,4.82,0,0,1-4.07,3.06c-.72,0-1-.44-1.12-1a5.35,5.35,0,0,1,.25-2.54c.6-2.12,1.57-4.09,2.35-6.14a7.62,7.62,0,0,0,.68-2.48c0-.33,0-.65-.35-.83a.87.87,0,0,0-.9.14,4.33,4.33,0,0,0-1.27,1.42,38.36,38.36,0,0,0-2.39,4.75,17.09,17.09,0,0,1-5.42,6.33c-.54.42-1.2.86-1.9.39s-.44-1.22-.31-1.85a29.16,29.16,0,0,1,2.36-6.36,14.16,14.16,0,0,0,1.33-3.19,2,2,0,0,0,0-1,.84.84,0,0,0-1.5-.47,5.92,5.92,0,0,0-1.1,1.29,26.33,26.33,0,0,0-4.22,10.47,6.86,6.86,0,0,0,0,1.92c.22,1.94,1.65,3,3.69,2.67A7.06,7.06,0,0,0,98.31,117a13.48,13.48,0,0,0,1.62-2.21c0,.5,0,.8,0,1.1a2.87,2.87,0,0,0,3.7,3,8.25,8.25,0,0,0,3.3-1.42c.22-.16.37-.35.61,0,.88,1.46,1.81,1.81,3.5,1.34a15.44,15.44,0,0,0,4.63-2.43,3,3,0,0,1,1-.62Z"/><path class="cls-3" d="M75.59,148.65a95.24,95.24,0,0,0,54.63-.12,4.68,4.68,0,0,0-.31.45c-1,1.71-1.91,3.46-3,5.09a8.25,8.25,0,0,0-1.34,4.43c-.32,6.23-.71,12.45-1.07,18.68-.11,1.87-.28,3.74-.33,5.61a2.76,2.76,0,0,1-1.58,2.47,17.61,17.61,0,0,1-4.91,1.77,59.65,59.65,0,0,1-11.29,1.37,77.53,77.53,0,0,1-12.47-.48,31.68,31.68,0,0,1-9.16-2.19,8.18,8.18,0,0,1-1.23-.68,2.5,2.5,0,0,1-1.25-2.11c-.35-5.76-.76-11.51-1.16-17.27-.19-2.8-.39-5.6-.56-8.41a2,2,0,0,0-.34-.88l-4.3-7.16Z"/><path class="cls-3" d="M103.31,55.7c2.78,0,5.57,0,8.35.14.47,0,.63-.11.74-.56,1.21-5,2.45-10,3.67-15a2.47,2.47,0,0,1,.63-1.14q9.66-10.21,19.3-20.44a1.37,1.37,0,0,1,1.64-.43,6.74,6.74,0,0,1,3.61,3.12,1.3,1.3,0,0,1-.27,1.72q-9.15,9.57-18.25,19.19a1.7,1.7,0,0,0-.45.82c-1,4.13-2.07,8.26-3.15,12.38-.15.57,0,.67.5.7,3.71.26,7.42.58,11.11,1.12A46.15,46.15,0,0,1,139,59.11a7.23,7.23,0,0,1,1.92.92c1,.71,1,1.46,0,2.17a8.92,8.92,0,0,1-2.42,1.08,55.19,55.19,0,0,1-9.86,1.89c-5.92.73-11.87,1.07-17.84,1.23q-11.06.31-22.1-.3A132.23,132.23,0,0,1,73,64.43a26.85,26.85,0,0,1-6.47-1.76,3.81,3.81,0,0,1-1.29-.85.94.94,0,0,1,0-1.44,5.39,5.39,0,0,1,2-1.16,40.51,40.51,0,0,1,8.35-1.87,177.7,177.7,0,0,1,20-1.54C98.18,55.74,100.74,55.72,103.31,55.7ZM113.73,64c.44,0,.88,0,1.33,0a11.54,11.54,0,0,0,2.92-.39.8.8,0,0,0,.09-1.54c-.13-.06-.27-.17-.39,0s-.29.28-.14.43c.4.4-.05.37-.21.4-.51.08-1,.14-1.54.18a21.92,21.92,0,0,1-4.79-.13c-.25,0-.66.07-.71-.34s-.06-.6-.39-.54a.65.65,0,0,0-.49.79c.09.77.72.88,1.29,1A13.94,13.94,0,0,0,113.73,64Z"/><path class="cls-3" d="M116.65,115.79l.08-.08c.09.07,0,.1,0,.12Z"/><path class="cls-2" d="M113.73,64a13.94,13.94,0,0,1-3-.15c-.57-.11-1.2-.22-1.29-1a.65.65,0,0,1,.49-.79c.33-.06.36.24.39.54s.46.3.71.34a21.92,21.92,0,0,0,4.79.13c.51,0,1-.1,1.54-.18.16,0,.61,0,.21-.4-.15-.15,0-.31.14-.43s.26-.06.39,0a.8.8,0,0,1-.09,1.54,11.54,11.54,0,0,1-2.92.39C114.61,64,114.17,64,113.73,64Z"/></g></g></g></svg>