<svg xmlns="http://www.w3.org/2000/svg" viewBox="0 0 206.56 206.56"><defs><style>.cls-1{fill:#619a44;}.cls-2{fill:#73ada5;}.cls-3{fill:#fffefd;}.cls-4{fill:#89c6ba;}</style></defs><title>html</title><g id="Layer_2" data-name="Layer 2"><g id="Layer_1-2" data-name="Layer 1"><g id="html"><circle class="cls-1" cx="103.28" cy="103.28" r="103.28"/><path class="cls-2" d="M103.35,41.65c19.82,0,39.64.05,59.45-.06,2.55,0,2.88.65,2.66,3-2.72,29.64-5.31,59.29-8,88.94-1,11.17-2,22.33-3,33.51a2.28,2.28,0,0,1-2,2.4q-24.07,6.61-48.1,13.36a5.42,5.42,0,0,1-2.93-.18q-23.52-6.56-47.06-13A2.81,2.81,0,0,1,52,166.7q-3.15-36.22-6.43-72.45c-1.48-16.58-2.88-33.16-4.52-49.72-.26-2.66.51-2.93,2.8-2.92C63.71,41.69,83.53,41.65,103.35,41.65Zm-.06,97.87c-5.65-.83-11-2.86-16.52-4.15-.9-.22-.94-.92-1-1.68-.3-3.14-.74-6.26-.94-9.4-.08-1.33-.54-1.66-1.78-1.64-3.8.06-7.61.17-11.4,0-2.32-.13-2.6.69-2.41,2.76.6,6.66,1.7,13.29,1.46,20-.07,1.83.94,2.23,2.34,2.6,7.75,2,15.5,4.08,23.23,6.2,2.35.64,4.57,1.78,7,2.06,0,4.61,0,9.23,0,13.84,0,1.5.27,2.15,2,1.6,4-1.26,8.14-2.32,12.22-3.43q12.36-3.39,24.74-6.73c1.45-.39,2.31-1,2.39-2.73.17-3.49.67-7,1-10.44.42-4.57.77-9.13,1.18-13.7.68-7.51,1.46-15,2.06-22.52.39-4.93,1-9.84,1.25-14.78.39-6.89,1.48-13.74,2-20.63.56-7.52,1.24-15,2.13-22.52.17-1.43-.07-2.21-1.76-2.21q-23.61,0-47.21,0c-1.55,0-2.06.57-2,2.07.08,3.25.16,6.52,0,9.77-.12,2.26.62,2.92,2.88,2.9,11.22-.11,22.43-.07,33.65,0,1,0,2.3-.6,2.61,1.09-1.17,0-2.34-.12-3.5-.13q-16.45-.08-32.91-.12a.6.6,0,0,0-1,0c-1.44.06-2.88.17-4.33.18-11.31,0-22.63,0-33.95,0-2,0-2.57.41-2.36,2.54q2,20.94,3.72,41.9c.18,2.32.88,3,3.22,2.93,10.68-.1,21.36,0,32,.08Q103.29,127.31,103.29,139.52Z"/><path class="cls-3" d="M106,67.53q16.46.06,32.91.12c1.16,0,2.33.09,3.5.13-.38,4.31-.91,8.61-1.08,12.93-.09,2.31-1,2.75-3.11,2.74-11.63-.07-23.26,0-34.9,0-6.76,0-13.52,0-20.29-.17-1.63,0-1.69.71-1.57,2,.41,4.12.81,8.26,1.09,12.39.09,1.31.59,1.66,1.83,1.65,6.31-.09,12.62-.11,18.94-.15,11.22,0,22.44.15,33.66,0,2.29,0,2.62.66,2.4,2.74-1.47,14-2.37,28.1-3.92,42.13-.28,2.58-1,3.46-3.41,4.08-9.61,2.56-19.16,5.34-28.73,8-2.46-.28-4.68-1.42-7-2.06C88.52,152.05,80.77,150,73,148c-1.4-.37-2.41-.77-2.34-2.6.24-6.7-.86-13.33-1.46-20-.19-2.07.09-2.89,2.41-2.76,3.79.2,7.6.09,11.4,0,1.24,0,1.7.31,1.78,1.64.2,3.14.64,6.26.94,9.4.08.76.12,1.46,1,1.68,5.53,1.29,10.87,3.32,16.52,4.15,5.51-.9,10.75-2.86,16.18-4.09,1.15-.26,1.25-1.11,1.26-2.07,0-2-.39-4.07.15-5.89,1.07-3.6.77-7.31,1.41-10.92.2-1.13-.22-1.62-1.45-1.6-5.86.08-11.71.1-17.57.15-10.67,0-21.35-.18-32-.08-2.34,0-3-.61-3.22-2.93q-1.69-21-3.72-41.9c-.21-2.13.32-2.56,2.36-2.54,11.32.09,22.64,0,34,0,1.45,0,2.89-.12,4.33-.18Z"/><path class="cls-4" d="M152.49,52q-23.61,0-47.21,0c-1.55,0-2.06.57-2,2.07.08,3.25.16,6.52,0,9.77-.12,2.26.62,2.92,2.88,2.9,11.22-.11,22.43-.07,33.65,0,1,0,2.3-.6,2.61,1.09-.38,4.31-.91,8.61-1.08,12.93-.09,2.31-1,2.75-3.11,2.74-11.63-.07-23.26,0-34.9,0V99.19c11.22,0,22.44.15,33.66,0,2.29,0,2.62.66,2.4,2.74-1.47,14-2.37,28.1-3.92,42.13-.28,2.58-1,3.46-3.41,4.08-9.61,2.56-19.16,5.34-28.73,8,0,4.61,0,9.23,0,13.84,0,1.5.27,2.15,2,1.6,4-1.26,8.14-2.32,12.22-3.43q12.36-3.39,24.74-6.73c1.45-.39,2.31-1,2.39-2.73.17-3.49.67-7,1-10.44.42-4.57.77-9.13,1.18-13.7.68-7.51,1.46-15,2.06-22.52.39-4.93,1-9.84,1.25-14.78.39-6.89,1.48-13.74,2-20.63.56-7.52,1.24-15,2.13-22.52C154.42,52.76,154.18,52,152.49,52Z"/><path class="cls-4" d="M122.29,116.55c.2-1.13-.22-1.62-1.45-1.6-5.86.08-11.71.1-17.57.15q0,12.21,0,24.42c5.51-.9,10.75-2.86,16.18-4.09,1.15-.26,1.25-1.11,1.26-2.07,0-2-.39-4.07.15-5.89C122,123.87,121.65,120.16,122.29,116.55Z"/><path class="cls-2" d="M104.94,67.51l1,0A.6.6,0,0,0,104.94,67.51Z"/><path class="cls-2" d="M81.42,85.3c.41,4.12.81,8.26,1.09,12.39.09,1.31.59,1.66,1.83,1.65,6.31-.09,12.62-.11,18.94-.15V83.5c-6.76,0-13.52,0-20.29-.17C81.36,83.3,81.3,84,81.42,85.3Z"/></g></g></g></svg>