<svg xmlns="http://www.w3.org/2000/svg" viewBox="0 0 206.65 206.66"><defs><style>.cls-1{fill:#73ada5;}.cls-2{fill:#fff;}.cls-3{fill:#619a44;}</style></defs><title>jquery</title><g id="Layer_2" data-name="Layer 2"><g id="Layer_1-2" data-name="Layer 1"><g id="jquery"><path class="cls-1" d="M196.69,59a103.54,103.54,0,1,0,10,44.31A103.66,103.66,0,0,0,196.69,59Z"/><path class="cls-2" d="M41.08,170c-1.06-2.78-.47-4,2.24-5.15,1.51-.62,2.2-2,2.78-3.47,1.31-3.26,1.6-6.75,2.42-10.12,1.81-7.38.32-5.89,7.74-5.82-1,4.69-2,9.31-3,13.92-.38,1.7-.91,3.36-1.33,5a8.42,8.42,0,0,1-4.62,5.6Z"/><path class="cls-2" d="M74.4,160.76c-2.36,0-4.73.05-7.09,0-5-.13-7.81-2.53-8.73-7.38-2.08-11,6.19-21.63,16.68-21,7.58.44,12,6.13,10,13.66-.64,2.47-1.62,4.85-2.35,7.3-.19.67-1.22,1.83.67,1.89.81,0,2.25-.25,1.4,1.33-.76,1.42.66,4.11-2.29,4.22C80,160.85,77.18,160.77,74.4,160.76Zm-9.11-9.88c.14,2.63,1.66,3.93,4.1,4.17,1.64.16,3.31-.07,4.94.1,1.47.16,2-.52,2.29-1.77.78-3.18,1.64-6.35,2.44-9.53.64-2.54-.76-4.15-2.75-5.19a6.61,6.61,0,0,0-8.55,2.78A26.87,26.87,0,0,0,65.29,150.88Z"/><path class="cls-2" d="M121.48,160.72a57.5,57.5,0,0,1-6.16,0c-3.89-.4-5.7-2.88-5.37-6.79a29,29,0,0,1,2.43-9.72,9,9,0,0,1,7.42-5.44c2.4-.36,4.49-1.13,7-.22,3.74,1.34,5.12,2.68,5.1,6.44q0,.47,0,.93c-.34,5.85-.34,5.85-6.12,5.85-2.36,0-4.73,0-7.09,0-.94,0-2.2-.4-2.29,1.24s.86,2.16,2.3,2.22c2.87.11,5.75.19,8.62.39.81.06,2.58-.67,2.08,1.13-.39,1.39.66,3.85-2.06,4-2,.12-3.91,0-5.86,0Zm-.16-13c1.57-.52,4,1,4.23-1.77.15-2-1.6-2.53-3.43-2.54-2.22,0-4.22.92-4.25,3.05C117.84,149,120.34,146.83,121.32,147.73Z"/><path class="cls-2" d="M110.12,138.51c-1.48,7.08-2.9,13.77-4.24,20.49-.27,1.36-.84,1.85-2.25,1.8-3.39-.1-6.78.06-10.17-.06-3.84-.14-5.61-2-5.52-5.86.11-5.13,1.43-10.08,2.52-15.06.57-2.62,2.85-1.16,4.31-1.22,1.24,0,1.26,1,1.18,2.37-.23,4.16-2.14,8-1.78,12.28.12,1.43.45,1.9,1.93,1.95,4.62.16,4.6.23,5.53-4.19.64-3.08,1.49-6.13,1.92-9.24.37-2.64,1.49-3.76,4.15-3.28A15.81,15.81,0,0,0,110.12,138.51Z"/><path class="cls-2" d="M150.52,160.72c2.81-5.39-.44-10.11-1.21-15.05,5.8-.88,6.12-.76,7.72,3,2.15-3.07,4.55-5.79,6.12-8.93,2.19-4.39,5.59-4.22,9.73-3.6-1.68,3.33-4,5.91-6.13,8.61-3.56,4.52-7.17,9-9.16,14.49a1.86,1.86,0,0,1-2.19,1.49C153.87,160.62,152.33,160.72,150.52,160.72Z"/><path class="cls-2" d="M155.22,144c-3.71,0-7.41.13-11.1,0-1.86-.09-2.53.65-2.86,2.29-.8,4-1.84,8-2.5,12.05-.51,3.15-2.76,2.6-4.66,2.43-2.4-.22-1.38-1.91-1.1-3.26,1.18-5.52,2.41-11,3.41-16.58.37-2.07,1.24-2.56,3.22-2.45,3.29.19,6.59,0,9.88.05C153.59,138.45,154.72,139.51,155.22,144Z"/><path class="cls-2" d="M57.65,138.46c-.34,3.1-.47,6-4.48,5-.91-.21-2.8.78-2.5-1,.25-1.45-.84-4.39,2.61-4.08C54.69,138.57,56.12,138.46,57.65,138.46Z"/><path class="cls-3" d="M101.43,105.33c-25-11.84-37.62-30.76-31.7-59.51l-1-.2a16,16,0,0,1-1,1.52C59.61,56.82,57.86,68,60.57,79.89A53,53,0,0,0,112.08,121c16.23,0,29.23-6.53,38.12-20.44.37-.57,1.29-1.14.62-2.1C136.62,111.36,115.94,112.21,101.43,105.33Z"/><path class="cls-3" d="M122.55,61.41c8.46,5,22.84,4.65,26.91-4-8.61,3.83-16.53,2.77-24.08-2.37s-11.15-12.57-11.21-21.78C107.91,41.9,112.23,55.28,122.55,61.41Z"/><path class="cls-3" d="M153.44,74.4c-.34-.31-.65.24-.89.52-12.25,10.62-27.86,10.26-41.92,1.2-14.3-9.21-19.21-22.33-16.19-39.55-6.2,7.28-8.06,14.79-6.74,23a37.7,37.7,0,0,0,45.15,30.65c8.73-1.92,16.09-6.12,20.23-14.59C153.51,75.29,153.92,74.83,153.44,74.4Z"/></g></g></g></svg>