<svg xmlns="http://www.w3.org/2000/svg" viewBox="0 0 206.65 206.66"><defs><style>.cls-1{fill:#73ada5;}.cls-2{fill:#7cb755;}.cls-3{fill:#619a44;}.cls-4{fill:#fffffe;}</style></defs><title>js</title><g id="Layer_2" data-name="Layer 2"><g id="Layer_1-2" data-name="Layer 1"><g id="js"><path class="cls-1" d="M196.69,59a103.54,103.54,0,1,0,10,44.31A103.66,103.66,0,0,0,196.69,59Z"/><path class="cls-2" d="M152,49.66c-14.34.06-28.68,0-43,0-6,0-6,0-6,5.94,10.55,0,21.11.12,31.66.07,1.88,0,2.57.54,2.72,2.45q1.19,14.79,2.6,29.58c.16,1.63-.12,2.39-2,2.35q-6-.15-11.94,0c-1.71,0-2.23-.61-2.34-2.23-.29-4.25-.76-8.48-1.11-12.72-.09-1.07-.38-1.72-1.61-1.76-6-.21-12-1-18-.81q0,12.6,0,25.2c11.29,0,22.59.17,33.88.09,2.43,0,3.2.53,3,3.07q-2.1,21.69-3.88,43.4a3.18,3.18,0,0,1-2.78,3.35c-10.09,2.71-20.13,5.59-30.19,8.41,0,4.81,0,9.62,0,14.43,0,1.49.34,2,1.92,1.5,2.71-.87,5.49-1.55,8.24-2.31q14.76-4.08,29.54-8.16c1.1-.3,2.41-.4,2.56-2.05.52-5.67,1.14-11.33,1.65-17,.45-5.13.64-10.29,1.23-15.4.9-7.75,1.48-15.54,2.13-23.31.39-4.67.91-9.33,1.24-14,.49-7.14,1.41-14.25,2.06-21.38.47-5.21.42-10.51,1.32-15.65C155.44,49.62,154.26,49.66,152,49.66Z"/><path class="cls-2" d="M120.86,133c.47-5.69,1-11.38,1.58-17.06.18-1.69-.5-2-2-2-5.81.08-11.62.08-17.43.12v25.08c5.43-1.42,10.86-2.86,16.3-4.24A1.77,1.77,0,0,0,120.86,133Z"/><path class="cls-3" d="M164.19,39.05c-20.28.08-40.56.05-60.83.05q-30.69,0-61.38,0c-2,0-2.68.22-2.46,2.52C41,57.15,42.27,72.73,43.66,88.3c2.34,26.26,4.74,52.51,7.05,78.78.15,1.63.61,2.37,2.27,2.83q24.23,6.63,48.39,13.44a5.87,5.87,0,0,0,3.27.05q24.31-6.77,48.66-13.49a2.58,2.58,0,0,0,2.26-2.62c.27-4,.62-7.94,1-11.9q2.91-32.2,5.84-64.4c1.47-16.4,2.86-32.81,4.42-49.2C167,39.49,166.39,39,164.19,39.05Zm-9.31,13.71c-.9,5.14-.85,10.44-1.32,15.65-.65,7.13-1.57,14.24-2.06,21.38-.33,4.68-.85,9.34-1.24,14-.65,7.77-1.23,15.56-2.13,23.31-.59,5.11-.78,10.27-1.23,15.4-.51,5.66-1.13,11.32-1.65,17-.15,1.65-1.46,1.75-2.56,2.05q-14.77,4.11-29.54,8.16c-2.75.76-5.53,1.44-8.24,2.31-1.58.5-1.93,0-1.92-1.5.06-4.81,0-9.62,0-14.43-9.79-2.73-19.55-5.56-29.38-8.12-2.69-.7-3.69-1.92-3.85-4.64-.38-6.36-1-12.71-1.67-19.06-.18-1.77.19-2.48,2.13-2.42,4,.14,8,.09,11.93,0,1.39,0,2,.35,2,1.83.17,3,.61,6.07.87,9.11.09,1,.14,1.77,1.35,2.06,5.54,1.38,11,3.21,16.6,4.25V114.05c-10.82,0-21.64-.15-32.45-.08-2.17,0-2.6-.58-2.4-2.67C69.68,95.66,71.07,80,72.5,64.38c.12-1.38.31-2.76.46-4.14.46-4.47.45-4.45,5.09-4.47l25-.14c0-5.94,0-5.94,6-5.94,14.34,0,28.68,0,43,0C154.26,49.66,155.44,49.62,154.88,52.76Z"/><path class="cls-3" d="M89.32,72.85c-1.54-.15-1.59,1-1.68,2C87,81.89,86.37,89,85.71,96.06c-.11,1.23.08,1.91,1.55,1.88,5.25-.1,10.51-.12,15.76-.17q0-12.6,0-25.2C98.44,72.05,93.89,73.3,89.32,72.85Z"/><path class="cls-4" d="M103,156.09c-9.79-2.73-19.55-5.56-29.38-8.12-2.69-.7-3.69-1.92-3.85-4.64-.38-6.36-1-12.71-1.67-19.06-.18-1.77.19-2.48,2.13-2.42,4,.14,8,.09,11.93,0,1.39,0,2,.35,2,1.83.17,3,.61,6.07.87,9.11.09,1,.14,1.77,1.35,2.06,5.54,1.38,11,3.21,16.6,4.25,5.43-1.42,10.86-2.86,16.3-4.24a1.77,1.77,0,0,0,1.54-1.88c.47-5.69,1-11.38,1.58-17.06.18-1.69-.5-2-2-2-5.81.08-11.62.08-17.43.12-10.82,0-21.64-.15-32.45-.08-2.17,0-2.6-.58-2.4-2.67C69.68,95.66,71.07,80,72.5,64.38c.12-1.38.31-2.76.46-4.14.46-4.47.45-4.45,5.09-4.47l25-.14c10.55,0,21.11.12,31.66.07,1.88,0,2.57.54,2.72,2.45q1.19,14.79,2.6,29.58c.16,1.63-.12,2.39-2,2.35q-6-.15-11.94,0c-1.71,0-2.23-.61-2.34-2.23-.29-4.25-.76-8.48-1.11-12.72-.09-1.07-.38-1.72-1.61-1.76-6-.21-12-1-18-.81-4.57-.52-9.12.73-13.69.28-1.54-.15-1.59,1-1.68,2C87,81.89,86.37,89,85.71,96.06c-.11,1.23.08,1.91,1.55,1.88,5.25-.1,10.51-.12,15.76-.17,11.29,0,22.59.17,33.88.09,2.43,0,3.2.53,3,3.07q-2.1,21.69-3.88,43.4a3.18,3.18,0,0,1-2.78,3.35C123.11,150.39,113.07,153.27,103,156.09Z"/></g></g></g></svg>